<svg width="24" height="24" viewBox="0 0 24 24" fill="none" xmlns="http://www.w3.org/2000/svg">
<path fill-rule="evenodd" clip-rule="evenodd" d="M6.00014 15.497V18.001L-0.000610352 12.001L1.25055 10.75L6.00014 15.496V15.497ZM8.50445 18.001H6.00014L12.0009 24.001L13.252 22.75L8.50445 18.001ZM22.7462 13.254L23.9994 12.001L11.9979 0.00100708L10.7477 1.25701L15.4953 6.00401H12.627L9.31255 2.69701L8.0614 3.94801L10.1217 6.00901H8.68147V15.323H17.9966V13.883L20.0579 15.943L21.3091 14.693L17.9966 11.379V8.50901L22.7462 13.254ZM6.62622 5.38001L5.37006 6.63301L6.71423 7.97601L7.96639 6.72401L6.62622 5.38001ZM17.2836 16.036L16.0314 17.289L17.3746 18.633L18.6277 17.38L17.2836 16.036ZM3.93888 8.06601L2.68573 9.32101L6.00014 12.633V10.127L3.93988 8.06701L3.93888 8.06601ZM13.8811 18.006H11.3748L14.6882 21.32L15.9414 20.067L13.8811 18.006Z" fill="white"/>
</svg>
