<svg width="666" height="160" viewBox="0 0 666 160" fill="none" xmlns="http://www.w3.org/2000/svg">
<path fill-rule="evenodd" clip-rule="evenodd" d="M79.8151 159.63C123.896 159.63 159.63 123.896 159.63 79.8151C159.63 35.7344 123.896 0 79.8151 0C35.7344 0 0 35.7344 0 79.8151C0 123.896 35.7344 159.63 79.8151 159.63ZM147.417 67.0394C143.318 45.2134 128.91 27.0234 109.442 17.7185C104.996 15.5937 102.773 14.5313 102.452 15.012C102.131 15.4928 104.043 17.2147 107.869 20.6586C120.806 32.3032 131.464 50.8291 133.747 58.82C130.876 60.973 125.135 63.8437 121.778 64.7554C122.367 69.55 122.676 74.5165 122.676 79.6013C122.676 82.681 122.608 85.7323 122.466 88.7402C122.383 90.4939 122.341 91.3707 122.9 91.7957C123.459 92.2208 124.266 91.9554 125.88 91.4246C130.308 89.9678 134.006 88.3367 136.867 86.617C140.478 84.446 144.477 81.4849 146.147 78.4793C147.817 75.4737 148.151 70.9448 147.417 67.0394ZM74.3098 21.3676C74.3098 20.4565 74.3098 20.0009 73.9895 19.7879C73.6693 19.5749 73.2671 19.7436 72.4626 20.0809C66.006 22.7884 60.3878 28.5597 56.0484 37.3875C54.0469 41.4591 52.3836 46.0658 51.0844 51.0987C50.8623 51.9591 50.7512 52.3894 50.9894 52.6557C51.2275 52.9219 51.6747 52.8584 52.5691 52.7313C59.388 51.7625 66.6999 51.1511 74.3098 50.9514V21.3676ZM74.3098 61.9844C67.2961 62.1788 60.6257 62.7405 54.4618 63.6026C51.6747 63.9924 50.2811 64.1873 49.3122 65.2264C48.3433 66.2656 48.2471 67.6577 48.0547 70.4419C47.8488 73.4218 47.7441 76.4782 47.7441 79.5969C47.7441 83.1733 47.899 86.7272 48.1943 90.2195C48.3904 92.539 48.4885 93.6987 49.2864 94.5464C50.0843 95.394 51.2421 95.5629 53.5579 95.9005C61.5567 97.0667 70.4317 97.7237 79.8151 97.7237C80.5061 97.7237 81.1946 97.7202 81.8804 97.7131C83.0763 97.7008 84.0274 98.7489 83.8965 99.9378C83.3291 105.091 78.8113 108.755 73.6301 108.569C65.5729 108.281 57.1738 107.62 50.6908 106.623C50.6928 106.632 50.6947 106.64 50.6966 106.649C48.2534 106.272 45.6303 105.837 43.8707 105.468C41.8649 105.048 39.469 104.462 37.5372 103.971C36.5795 103.727 35.7514 103.511 35.1637 103.355C34.8701 103.278 34.637 103.216 34.4785 103.173L34.4741 103.172C32.7151 102.676 31.0213 102.151 29.3985 101.598C22.8462 99.3671 17.1478 96.5866 12.9765 93.2285C12.7189 93.0212 12.4644 92.8092 12.2135 92.5927C16.2804 114.242 30.4902 132.314 49.7197 141.685C51.8453 142.721 52.908 143.239 53.2434 142.84C53.5787 142.441 52.8534 141.44 51.4026 139.437C48.9274 136.021 46.7463 132.062 44.8618 127.775C44.1056 126.055 43.3888 124.263 42.714 122.408C41.7099 119.648 41.2078 118.267 41.9433 117.383C42.6787 116.498 44.1909 116.75 47.2151 117.254C48.2128 117.42 49.1607 117.572 49.9612 117.694C52.4535 118.071 54.5223 119.786 55.4829 122.116C55.7023 122.649 55.9255 123.173 56.1523 123.689C58.7259 129.543 61.6447 134.038 64.5935 136.974C67.5594 139.926 70.0222 140.811 71.8503 140.811C79.0655 140.811 85.0995 136.226 89.561 124.922C91.4375 120.167 92.8743 114.555 93.9061 108.274C93.8884 108.276 93.8706 108.277 93.8528 108.278C94.4961 104.551 94.9249 101.032 95.2411 97.1152C95.2494 97.1145 95.2577 97.1139 95.266 97.1132C95.7321 91.5947 95.9565 85.7244 95.9565 79.5969C95.9565 76.2521 95.8414 72.97 95.6199 69.7695C89.4974 70.1511 81.6753 70.3733 74.3273 70.062V69.8898H74.3098V61.9844ZM35.5886 79.5969C35.5886 82.6831 35.6955 85.7626 35.903 88.8138C35.9897 90.0884 36.0331 90.7257 35.7455 91.1189C35.5963 91.3229 35.3874 91.4835 35.1518 91.5751C34.6978 91.7518 34.1164 91.5538 32.9535 91.1579C27.0579 89.1504 22.6829 86.8838 19.8926 84.6375C17.0528 82.3513 16.5435 80.6867 16.5435 79.8161C16.5435 78.9658 17.0251 77.3621 19.703 75.1493C22.3437 72.9672 26.5005 70.7471 32.1368 68.7574C32.2124 68.7307 32.2882 68.7041 32.3643 68.6775C34.0108 68.1021 34.8341 67.8144 35.4045 68.2443C35.9749 68.6742 35.9233 69.5786 35.8199 71.3875C35.6656 74.0894 35.5886 76.8292 35.5886 79.5969ZM44.9469 32.8952C42.3337 38.2113 40.2726 44.1651 38.7576 50.572C38.1696 53.0586 37.8756 54.302 37.1396 55.0832C36.4036 55.8644 35.1823 56.2313 32.7398 56.9651C31.2643 57.4083 29.8383 57.8728 28.4654 58.3575C22.1689 60.5802 16.6897 63.332 12.6776 66.6474C12.5215 66.7763 12.3667 66.907 12.2132 67.0395C16.5042 44.1929 32.0907 25.3301 52.9521 16.472C55.7608 15.2794 57.1651 14.6831 57.4743 15.1323C57.7835 15.5815 56.6725 16.7352 54.4503 19.0426C50.6561 22.9822 47.4981 27.7054 44.9469 32.8952ZM106.649 139.827C104.474 142.289 103.386 143.519 103.708 143.954C104.029 144.389 105.446 143.744 108.28 142.454C127.204 133.84 141.54 116.902 146.609 96.3178C146.982 94.8035 147.168 94.0464 146.792 93.7841C146.415 93.5219 145.738 93.981 144.384 94.8991C143.782 95.307 143.169 95.6971 142.549 96.0695C138.109 98.7385 132.526 101.022 126.156 102.885C123.603 103.632 122.326 104.005 121.57 104.83C120.815 105.654 120.554 106.957 120.033 109.562C118.573 116.857 116.455 123.573 113.548 129.413C111.607 133.311 109.312 136.813 106.649 139.827Z" fill="white"/>
<path d="M254.057 71.2547C276.546 74.3016 293.377 79.5249 293.377 100.998C293.377 117.539 279.593 132.628 252.751 132.628C224.459 132.628 212.126 114.347 212.126 95.485H226.635C226.925 105.641 232.293 119.86 252.751 119.86C272.774 119.86 278.288 109.559 278.288 101.869C278.288 92.8734 272.629 87.9402 252.606 85.4737C228.811 82.5718 215.608 74.3016 215.608 56.8906C215.608 40.9305 229.247 28.1624 252.897 28.1624C277.997 28.1624 289.024 44.1225 289.46 60.663H275.386C275.386 51.6673 269.292 40.9305 252.606 40.9305C235.485 40.9305 230.552 49.3458 230.552 56.0201C230.552 62.259 233.309 68.4979 254.057 71.2547Z" fill="white"/>
<path d="M372.31 93.3086C372.31 95.3399 372.165 96.7908 371.875 98.3868H316.45C317.466 110.284 325.591 119.86 339.084 119.86C349.096 119.86 354.029 114.927 356.64 106.367H371.005C367.958 120.151 357.801 132.628 338.794 132.628C315.434 132.628 302.666 115.363 302.666 94.3243C302.666 71.9801 317.176 56.0201 338.504 56.0201C355.044 56.0201 372.31 66.9019 372.31 93.3086ZM317.176 86.7795H358.382C357.511 75.8976 350.547 68.2078 339.229 68.2078C325.301 68.2078 319.207 76.7682 317.176 86.7795Z" fill="white"/>
<path d="M423.719 56.0201C440.84 56.0201 451.287 65.5961 451.287 87.3599V131.468H437.358V90.2617C437.358 72.9958 429.958 68.2078 420.237 68.2078C409.5 68.2078 397.893 79.0896 397.893 96.7908V131.468H383.964V57.1808H397.893V62.1139C397.893 65.1608 397.603 68.2078 396.297 71.9801C395.862 73.286 395.281 74.7369 396.442 75.0271C397.313 75.3173 397.748 74.3016 398.038 73.7212C400.94 66.4667 410.371 56.0201 423.719 56.0201Z" fill="white"/>
<path d="M520.956 27.0017H534.885V131.468H520.956V125.229C520.956 122.617 521.246 120.586 522.407 117.394C522.842 116.233 523.567 114.927 522.116 114.492C521.246 114.202 520.811 115.363 520.666 115.798C517.183 126.244 507.317 132.628 495.71 132.628C476.413 132.628 462.919 116.378 462.919 94.3243C462.919 72.2703 476.413 56.0201 495.71 56.0201C507.607 56.0201 517.328 62.5492 520.666 72.5605C520.811 72.9958 521.246 74.4467 522.407 74.0114C523.712 73.5762 522.842 72.1252 522.407 70.9645C521.246 67.9176 520.956 65.7412 520.956 62.9845V27.0017ZM498.612 119.86C511.815 119.86 520.956 108.108 520.956 94.3243C520.956 80.5406 511.815 68.7881 498.612 68.7881C484.102 68.7881 476.848 80.5406 476.848 94.3243C476.848 108.108 484.102 119.86 498.612 119.86Z" fill="white"/>
<path d="M624.812 131.468L616.542 107.092H569.242L560.972 131.468H544.141L581.284 29.3232H604.499L641.643 131.468H624.812ZM573.449 94.3243H612.334L595.503 44.4127C594.923 42.5265 594.343 40.7854 594.052 38.3189C593.907 37.4483 593.907 36.5778 592.892 36.5778C591.876 36.5778 591.876 37.4483 591.731 38.3189C591.441 40.7854 590.86 42.5265 590.28 44.4127L573.449 94.3243Z" fill="white"/>
<path d="M666 131.468H650.91V29.3232H666V131.468Z" fill="white"/>
</svg>
