<svg width="24" height="24" viewBox="0 0 24 24" fill="none" xmlns="http://www.w3.org/2000/svg">
<g clip-path="url(#clip0_26_589)">
<path d="M21.3729 16.6819C20.8554 17.8313 20.606 18.3451 19.9404 19.3594C19.0085 20.7769 17.6941 22.5469 16.0704 22.5582C14.6248 22.5713 14.2516 21.6151 12.2885 21.6319C10.3273 21.6413 9.91853 22.5769 8.47103 22.5619C6.8454 22.5469 5.60228 20.9532 4.6704 19.5376C2.06415 15.5682 1.78853 10.9144 3.39915 8.43943C4.53915 6.68443 6.34103 5.65318 8.03415 5.65318C9.75915 5.65318 10.8429 6.60006 12.2679 6.60006C13.6517 6.60006 14.4935 5.65131 16.4885 5.65131C17.996 5.65131 19.5898 6.47256 20.7298 7.89006C17.0023 9.93381 17.6079 15.2569 21.3729 16.6819ZM14.9735 4.06693C15.6992 3.13506 16.2504 1.82068 16.0498 0.481934C14.8667 0.562559 13.4829 1.31818 12.6748 2.29693C11.9417 3.18943 11.3342 4.51318 11.5704 5.79381C12.8623 5.83506 14.1992 5.06443 14.9735 4.06693Z" fill="white" fill-opacity="0.88"/>
</g>
<defs>
<clipPath id="clip0_26_589">
<rect width="24" height="24" fill="white" transform="translate(0 0.00195312)"/>
</clipPath>
</defs>
</svg>
