<svg width="557" height="153" viewBox="0 0 557 153" fill="none" xmlns="http://www.w3.org/2000/svg">
<g clip-path="url(#clip0_0_1)">
<mask id="mask0_0_1" style="mask-type:alpha" maskUnits="userSpaceOnUse" x="6" y="5" width="230" height="253">
<path d="M235.084 5H6V257.404H235.084V5Z" fill="url(#paint0_radial_0_1)"/>
</mask>
<g mask="url(#mask0_0_1)">
<path d="M-162.565 90.8823H25.1314L51.5473 126.37H223.254" stroke="#252527" stroke-linecap="round"/>
<path d="M-162.565 81.783H29.0369L56.6312 117.271H235.994" stroke="#252527" stroke-linecap="round"/>
<path d="M-80.6696 72.6833H32.9424L61.7151 108.171H248.733" stroke="#252527" stroke-linecap="round"/>
<path d="M-80.6696 63.5837H36.8489L66.7981 99.0719H261.472" stroke="#252527" stroke-linecap="round"/>
</g>
</g>
<path d="M0.841695 53.0392L0.386719 53.0547L0.416752 53.9637L0.870825 53.9491L0.841695 53.0392ZM42.2591 52.1292L42.604 51.8326L42.462 51.667L42.2445 51.6743L42.2591 52.1292ZM73.1975 88.0723L72.8526 88.369L72.9891 88.5273H73.1975V88.0723ZM178.752 88.5273C179.003 88.5273 179.207 88.3235 179.207 88.0723C179.207 87.8212 179.003 87.6174 178.752 87.6174V88.5273ZM0.870825 53.9491L42.2736 52.5842L42.2445 51.6743L0.841695 53.0392L0.870825 53.9491ZM41.9142 52.4259L72.8526 88.369L73.5423 87.7757L42.604 51.8326L41.9142 52.4259ZM73.1975 88.5273H178.752V87.6174H73.1975V88.5273Z" fill="url(#paint1_linear_0_1)" fill-opacity="0.9"/>
<g clip-path="url(#clip1_0_1)">
<mask id="mask1_0_1" style="mask-type:alpha" maskUnits="userSpaceOnUse" x="322" y="-105" width="230" height="253">
<path d="M322.303 147.996L551.387 147.996L551.387 -104.407L322.303 -104.407L322.303 147.996Z" fill="url(#paint2_radial_0_1)"/>
</mask>
<g mask="url(#mask1_0_1)">
<path d="M719.952 62.1138L532.255 62.1138L505.839 26.6257L334.132 26.6257" stroke="#252527" stroke-linecap="round"/>
<path d="M719.952 71.2131L528.35 71.2132L500.755 35.725L321.393 35.7251" stroke="#252527" stroke-linecap="round"/>
<path d="M638.056 80.3127L524.444 80.3128L495.672 44.8246L308.654 44.8247" stroke="#252527" stroke-linecap="round"/>
<path d="M638.056 89.4124L520.538 89.4124L490.589 53.9242L295.914 53.9243" stroke="#252527" stroke-linecap="round"/>
</g>
</g>
<path d="M556.545 99.9569L557 99.9414L556.97 99.0324L556.516 99.0469L556.545 99.9569ZM515.128 100.867L514.783 101.164L514.925 101.329L515.142 101.322L515.128 100.867ZM484.189 64.9238L484.534 64.6271L484.398 64.4688L484.189 64.4688L484.189 64.9238ZM378.635 64.4688C378.384 64.4688 378.18 64.6726 378.18 64.9238C378.18 65.1749 378.384 65.3787 378.635 65.3787L378.635 64.4688ZM556.516 99.0469L515.113 100.412L515.142 101.322L556.545 99.9569L556.516 99.0469ZM515.473 100.57L484.534 64.6271L483.844 65.2204L514.783 101.164L515.473 100.57ZM484.189 64.4688L378.635 64.4688L378.635 65.3787L484.189 65.3787L484.189 64.4688Z" fill="url(#paint3_linear_0_1)" fill-opacity="0.9"/>
<g filter="url(#filter0_d_0_1)">
<path fill-rule="evenodd" clip-rule="evenodd" d="M392.486 81.3278H392.18L388.193 69.7705H383.525V70.2483L389.147 86.388H395.346L400.968 70.2483V69.7705H396.503L392.481 81.3278H392.486Z" fill="white"/>
<path d="M382.283 69.7705H377.642V86.3862H382.283V69.7705Z" fill="white"/>
<path fill-rule="evenodd" clip-rule="evenodd" d="M414.761 69.7686H414.765L410.742 81.3294H410.436L406.449 69.7721H401.781V70.2534L407.888 87.7881H402.105V91.637H407.756C410.17 91.637 412.05 90.8231 412.962 88.2256C413.084 87.8791 419.224 70.2499 419.224 70.2499V69.7686H414.759H414.761Z" fill="white"/>
<path fill-rule="evenodd" clip-rule="evenodd" d="M353.986 69.3181C351.876 69.3181 349.903 70.3928 348.672 72.4127H348.387V69.7872H343.962V91.6294H348.664V84.2711H348.953C348.984 84.3148 349.016 84.3603 349.047 84.3971C349.84 85.3615 351.692 86.8318 353.995 86.8318C358.187 86.8318 361.054 83.2086 361.054 78.0767C361.054 72.9448 358.045 69.3199 353.986 69.3199V69.3181ZM352.583 83.2296C350.395 83.2296 348.884 81.5248 348.884 78.0784C348.884 74.6321 350.395 72.9273 352.583 72.9273C354.771 72.9273 356.355 74.6688 356.355 78.0784C356.355 81.4881 354.807 83.2296 352.583 83.2296Z" fill="white"/>
<path fill-rule="evenodd" clip-rule="evenodd" d="M372.715 69.7686C370.536 69.7686 369.137 70.1326 368.32 72.4133H368.04V69.7703H361.31V73.586H362.811C363.307 73.586 363.55 73.761 363.613 74.1671V77.3387H363.631V86.3878H368.332V77.5732C368.332 75.2908 368.952 73.8923 371.234 73.8923H376.159V69.7686H372.716H372.715Z" fill="white"/>
<path d="M319.583 86.8213C324.417 86.8213 328.334 82.9041 328.334 78.0697C328.334 73.2353 324.417 69.3181 319.583 69.3181C314.748 69.3181 310.831 73.2353 310.831 78.0697C310.831 82.9041 314.748 86.8213 319.583 86.8213Z" fill="white"/>
<path d="M319.583 91.9112C322.886 91.9112 325.564 91.3494 325.564 90.6528C325.564 89.9561 322.886 89.3943 319.583 89.3943C316.28 89.3943 313.602 89.9561 313.602 90.6528C313.602 91.3494 316.28 91.9112 319.583 91.9112Z" fill="white"/>
<path d="M142.776 86.3805V67.9111H149.361C150.798 67.9111 151.988 68.1737 152.931 68.6953C153.875 69.2169 154.582 69.9327 155.051 70.8377C155.52 71.7426 155.755 72.7595 155.755 73.8902C155.755 75.0209 155.518 76.0483 155.047 76.9533C154.575 77.8582 153.866 78.5741 152.919 79.0991C151.972 79.626 150.782 79.8885 149.352 79.8885H144.824V77.5256H149.1C150.008 77.5256 150.743 77.3681 151.309 77.053C151.874 76.738 152.289 76.3056 152.553 75.7578C152.817 75.2117 152.951 74.5886 152.951 73.8902C152.951 73.1918 152.817 72.574 152.553 72.0331C152.289 71.4923 151.872 71.0687 151.303 70.7606C150.736 70.4543 149.987 70.3003 149.063 70.3003H145.564V86.3805H142.778H142.776Z" fill="white"/>
<path d="M158.794 86.3813V72.5293H161.4V74.7294H161.543C161.795 73.9838 162.242 73.3957 162.882 72.9669C163.523 72.5363 164.248 72.3228 165.06 72.3228C165.228 72.3228 165.427 72.328 165.66 72.3403C165.891 72.3525 166.073 72.3665 166.206 72.3858V74.9657C166.098 74.936 165.905 74.901 165.629 74.8625C165.352 74.8222 165.075 74.8047 164.799 74.8047C164.162 74.8047 163.595 74.9377 163.099 75.2055C162.604 75.4733 162.21 75.8426 161.921 76.3152C161.633 76.7878 161.489 77.3234 161.489 77.9255V86.3848H158.792L158.794 86.3813Z" fill="white"/>
<path d="M173.881 86.6617C172.582 86.6617 171.45 86.3641 170.482 85.769C169.514 85.1739 168.761 84.3408 168.227 83.2713C167.692 82.2001 167.424 80.9504 167.424 79.5187C167.424 78.0869 167.692 76.8249 168.227 75.7485C168.763 74.672 169.514 73.8371 170.482 73.242C171.45 72.6469 172.582 72.3494 173.881 72.3494C175.18 72.3494 176.312 72.6469 177.282 73.242C178.25 73.8371 179.001 74.672 179.536 75.7485C180.072 76.8249 180.339 78.0816 180.339 79.5187C180.339 80.9557 180.072 82.2001 179.536 83.2713C179.001 84.3425 178.25 85.1739 177.282 85.769C176.314 86.3641 175.181 86.6617 173.881 86.6617ZM173.891 84.3985C174.733 84.3985 175.43 84.1762 175.983 83.7317C176.536 83.2871 176.946 82.6937 177.213 81.9551C177.481 81.2147 177.614 80.4008 177.614 79.5099C177.614 78.619 177.479 77.8121 177.213 77.07C176.946 76.3261 176.536 75.731 175.983 75.2794C175.43 74.8296 174.732 74.6038 173.891 74.6038C173.051 74.6038 172.341 74.8296 171.786 75.2794C171.229 75.731 170.818 76.3278 170.55 77.07C170.282 77.8121 170.149 78.626 170.149 79.5099C170.149 80.3938 170.284 81.2147 170.55 81.9551C170.818 82.6937 171.229 83.2871 171.786 83.7317C172.342 84.1762 173.044 84.3985 173.891 84.3985Z" fill="white"/>
<path d="M189.809 72.5298V74.6932H182.242V72.5298H189.809ZM184.271 69.2112H186.968V82.3158C186.968 82.8391 187.045 83.2312 187.202 83.4938C187.358 83.7546 187.561 83.9331 187.812 84.0258C188.062 84.1186 188.333 84.1659 188.627 84.1659C188.844 84.1659 189.033 84.1501 189.196 84.1204C189.359 84.0906 189.485 84.0661 189.574 84.0486L190.061 86.275C189.905 86.3363 189.683 86.3975 189.394 86.4605C189.105 86.5235 188.744 86.5586 188.312 86.5638C187.603 86.5761 186.942 86.45 186.327 86.184C185.715 85.9197 185.218 85.5119 184.839 84.957C184.46 84.4039 184.272 83.709 184.272 82.8741V69.2112H184.271Z" fill="white"/>
<path d="M198.611 86.6599C197.246 86.6599 196.071 86.3676 195.089 85.7813C194.106 85.1949 193.35 84.3688 192.816 83.3011C192.284 82.2334 192.018 80.9819 192.018 79.5449C192.018 78.1079 192.284 76.8757 192.816 75.794C193.348 74.7123 194.093 73.8669 195.053 73.2595C196.012 72.6522 197.134 72.3494 198.422 72.3494C199.203 72.3494 199.961 72.4789 200.696 72.7379C201.429 72.9952 202.087 73.4013 202.67 73.9544C203.253 74.5075 203.713 75.2234 204.049 76.1055C204.385 76.986 204.553 78.0554 204.553 79.3121V80.2678H193.542V78.2462H201.912C201.912 77.5373 201.769 76.9072 201.48 76.3576C201.191 75.8062 200.787 75.3722 200.267 75.0536C199.747 74.735 199.138 74.5758 198.441 74.5758C197.683 74.5758 197.024 74.7613 196.462 75.1306C195.9 75.4999 195.468 75.9813 195.163 76.5746C194.858 77.168 194.708 77.8086 194.708 78.5V80.0788C194.708 81.0047 194.872 81.7923 195.2 82.4417C195.527 83.091 195.986 83.5864 196.575 83.9242C197.164 84.2638 197.853 84.4335 198.641 84.4335C199.152 84.4335 199.617 84.3583 200.039 84.213C200.461 84.066 200.823 83.8454 201.13 83.5496C201.436 83.2556 201.671 82.8915 201.833 82.4592L204.385 82.9178C204.181 83.6704 203.815 84.3268 203.29 84.8886C202.763 85.4505 202.105 85.8863 201.315 86.1961C200.524 86.5059 199.624 86.6599 198.615 86.6599H198.611Z" fill="white"/>
<path d="M213.393 86.6599C212.052 86.6599 210.899 86.3554 209.934 85.7445C208.97 85.1337 208.228 84.2918 207.711 83.2153C207.193 82.1406 206.936 80.9067 206.936 79.5187C206.936 78.1307 207.2 76.8687 207.729 75.7887C208.257 74.7088 209.003 73.8669 209.966 73.2595C210.928 72.6522 212.061 72.3494 213.367 72.3494C214.418 72.3494 215.357 72.5437 216.181 72.9305C217.004 73.319 217.671 73.8616 218.178 74.5583C218.686 75.2549 218.989 76.0705 219.085 77.0035H216.461C216.318 76.3541 215.988 75.7957 215.474 75.3267C214.959 74.8576 214.273 74.623 213.414 74.623C212.661 74.623 212.005 74.8191 211.443 75.2129C210.881 75.6067 210.443 76.1668 210.13 76.8897C209.817 77.6143 209.661 78.4702 209.661 79.4556C209.661 80.4411 209.815 81.3372 210.121 82.0724C210.428 82.8057 210.862 83.3746 211.425 83.7772C211.987 84.1797 212.651 84.381 213.414 84.381C213.925 84.381 214.389 84.2865 214.807 84.0975C215.225 83.9084 215.577 83.6354 215.862 83.2818C216.148 82.9283 216.347 82.4994 216.463 82.0006H219.087C218.99 82.8968 218.698 83.6967 218.211 84.4003C217.725 85.1039 217.074 85.657 216.258 86.0596C215.444 86.4622 214.488 86.6634 213.394 86.6634L213.393 86.6599Z" fill="white"/>
<path d="M228.445 72.5298V74.6932H220.879V72.5298H228.445ZM222.907 69.2112H225.605V82.3158C225.605 82.8391 225.683 83.2312 225.839 83.4938C225.995 83.7546 226.198 83.9331 226.448 84.0258C226.698 84.1186 226.97 84.1659 227.264 84.1659C227.481 84.1659 227.67 84.1501 227.831 84.1204C227.994 84.0906 228.12 84.0661 228.211 84.0486L228.697 86.275C228.54 86.3363 228.318 86.3975 228.03 86.4605C227.742 86.5235 227.381 86.5586 226.949 86.5638C226.24 86.5761 225.578 86.45 224.964 86.184C224.351 85.9197 223.854 85.5119 223.476 84.957C223.098 84.4039 222.909 83.709 222.909 82.8741V69.2112H222.907Z" fill="white"/>
<path d="M237.248 86.6599C235.882 86.6599 234.71 86.3676 233.726 85.7813C232.742 85.1949 231.986 84.3688 231.452 83.3011C230.92 82.2334 230.654 80.9819 230.654 79.5449C230.654 78.1079 230.92 76.8757 231.452 75.794C231.985 74.7123 232.73 73.8669 233.689 73.2595C234.648 72.6522 235.77 72.3494 237.059 72.3494C237.841 72.3494 238.597 72.4789 239.332 72.7379C240.066 72.9952 240.724 73.4013 241.307 73.9544C241.89 74.5075 242.35 75.2234 242.686 76.1055C243.022 76.986 243.19 78.0554 243.19 79.3121V80.2678H232.179V78.2462H240.549C240.549 77.5373 240.405 76.9072 240.116 76.3576C239.828 75.8062 239.423 75.3722 238.904 75.0536C238.384 74.735 237.775 74.5758 237.078 74.5758C236.32 74.5758 235.66 74.7613 235.098 75.1306C234.536 75.4999 234.104 75.9813 233.8 76.5746C233.495 77.1662 233.345 77.8086 233.345 78.5V80.0788C233.345 81.0047 233.509 81.7923 233.836 82.4417C234.164 83.091 234.622 83.5864 235.212 83.9242C235.802 84.262 236.49 84.4335 237.277 84.4335C237.789 84.4335 238.254 84.3583 238.676 84.213C239.096 84.066 239.46 83.8454 239.766 83.5496C240.073 83.2538 240.307 82.8915 240.47 82.4592L243.022 82.9178C242.817 83.6704 242.451 84.3268 241.926 84.8886C241.401 85.4505 240.741 85.8863 239.952 86.1961C239.161 86.5059 238.261 86.6599 237.251 86.6599H237.248Z" fill="white"/>
<path d="M251.38 86.6518C250.261 86.6518 249.265 86.3647 248.39 85.7906C247.515 85.2165 246.829 84.3956 246.334 83.3279C245.838 82.2602 245.59 80.979 245.59 79.4825C245.59 77.9859 245.84 76.7047 246.342 75.6405C246.845 74.5763 247.534 73.7607 248.411 73.1953C249.29 72.63 250.284 72.3482 251.396 72.3482C252.255 72.3482 252.948 72.4917 253.475 72.777C254.002 73.0623 254.41 73.3949 254.702 73.7729C254.994 74.151 255.22 74.4853 255.383 74.7741H255.546V67.9111H258.243V86.3822H255.609V84.2276H255.383C255.22 84.5216 254.987 84.8577 254.684 85.2375C254.382 85.6173 253.965 85.9464 253.435 86.2299C252.906 86.5135 252.22 86.6535 251.378 86.6535L251.38 86.6518ZM251.975 84.3518C252.75 84.3518 253.407 84.1453 253.946 83.734C254.483 83.3227 254.893 82.7503 255.173 82.0152C255.453 81.2818 255.591 80.4276 255.591 79.4545C255.591 78.4813 255.453 77.6516 255.176 76.9305C254.9 76.2094 254.494 75.6475 253.958 75.2432C253.422 74.8406 252.761 74.6393 251.973 74.6393C251.185 74.6393 250.485 74.8494 249.945 75.2695C249.404 75.6913 248.996 76.2636 248.723 76.9935C248.45 77.7199 248.311 78.5408 248.311 79.4545C248.311 80.3681 248.45 81.2135 248.726 81.9539C249.003 82.6925 249.412 83.2789 249.957 83.7077C250.501 84.1366 251.173 84.3518 251.973 84.3518H251.975Z" fill="white"/>
<path d="M269.03 86.3805V67.9111H271.728V74.7741H271.89C272.046 74.4853 272.272 74.1528 272.566 73.7729C272.86 73.3931 273.27 73.0623 273.793 72.777C274.316 72.4917 275.008 72.3482 275.867 72.3482C276.986 72.3482 277.983 72.6317 278.862 73.1953C279.741 73.7607 280.43 74.5746 280.933 75.6405C281.435 76.7065 281.685 77.9859 281.685 79.4825C281.685 80.979 281.435 82.262 280.936 83.3279C280.437 84.3939 279.751 85.2165 278.879 85.7906C278.008 86.3647 277.014 86.6518 275.895 86.6518C275.053 86.6518 274.367 86.5117 273.835 86.2282C273.303 85.9446 272.886 85.6156 272.585 85.2358C272.284 84.8559 272.053 84.5199 271.89 84.2258H271.665V86.3805H269.03ZM271.672 79.4545C271.672 80.4294 271.813 81.2835 272.095 82.0152C272.377 82.7486 272.787 83.3209 273.322 83.734C273.858 84.1471 274.512 84.3518 275.288 84.3518C276.063 84.3518 276.767 84.1366 277.308 83.7077C277.848 83.2789 278.26 82.6925 278.538 81.9539C278.818 81.2135 278.956 80.3821 278.956 79.4545C278.956 78.5268 278.82 77.7199 278.547 76.9935C278.274 76.2654 277.864 75.6913 277.32 75.2695C276.776 74.8494 276.098 74.6393 275.286 74.6393C274.474 74.6393 273.844 74.8406 273.306 75.2432C272.769 75.6458 272.361 76.2076 272.085 76.9305C271.808 77.6516 271.67 78.4935 271.67 79.4545H271.672Z" fill="white"/>
<path d="M285.922 91.5409C285.519 91.5409 285.152 91.5094 284.821 91.4464C284.49 91.3834 284.243 91.3151 284.081 91.2434L284.73 89.0345C285.47 89.2393 286.09 89.255 286.592 89.0835C287.095 88.912 287.516 88.3781 287.859 87.482L288.194 86.563L283.125 72.5308H286.011L289.519 83.2812H289.662L293.17 72.5308L296.082 72.557L290.355 88.2311C290.091 88.947 289.755 89.5508 289.346 90.0444C288.936 90.538 288.449 90.9108 287.884 91.1629C287.319 91.4167 286.664 91.5427 285.918 91.5427L285.922 91.5409Z" fill="white"/>
</g>
<defs>
<filter id="filter0_d_0_1" x="138.776" y="63.9111" width="284.449" height="32" filterUnits="userSpaceOnUse" color-interpolation-filters="sRGB">
<feFlood flood-opacity="0" result="BackgroundImageFix"/>
<feColorMatrix in="SourceAlpha" type="matrix" values="0 0 0 0 0 0 0 0 0 0 0 0 0 0 0 0 0 0 127 0" result="hardAlpha"/>
<feOffset/>
<feGaussianBlur stdDeviation="2"/>
<feComposite in2="hardAlpha" operator="out"/>
<feColorMatrix type="matrix" values="0 0 0 0 1 0 0 0 0 1 0 0 0 0 1 0 0 0 0.9 0"/>
<feBlend mode="normal" in2="BackgroundImageFix" result="effect1_dropShadow_0_1"/>
<feBlend mode="normal" in="SourceGraphic" in2="effect1_dropShadow_0_1" result="shape"/>
</filter>
<radialGradient id="paint0_radial_0_1" cx="0" cy="0" r="1" gradientUnits="userSpaceOnUse" gradientTransform="translate(117.742 131.202) rotate(90) scale(126.202 114.542)">
<stop offset="0.235577" stop-color="#1B1B1B"/>
<stop offset="1" stop-color="#1B1B1B" stop-opacity="0"/>
</radialGradient>
<linearGradient id="paint1_linear_0_1" x1="23.1501" y1="85.3425" x2="81.953" y2="146.543" gradientUnits="userSpaceOnUse">
<stop stop-color="#1355A6" stop-opacity="0"/>
<stop offset="0.541667" stop-color="#1355A6"/>
<stop offset="0.838485" stop-color="#1355A6"/>
<stop offset="0.958333" stop-color="#1355A6" stop-opacity="0"/>
</linearGradient>
<radialGradient id="paint2_radial_0_1" cx="0" cy="0" r="1" gradientUnits="userSpaceOnUse" gradientTransform="translate(439.645 21.7943) rotate(-90) scale(126.202 114.542)">
<stop offset="0.235577" stop-color="#1B1B1B"/>
<stop offset="1" stop-color="#1B1B1B" stop-opacity="0"/>
</radialGradient>
<linearGradient id="paint3_linear_0_1" x1="534.237" y1="67.6536" x2="475.434" y2="6.45297" gradientUnits="userSpaceOnUse">
<stop stop-color="#1355A6" stop-opacity="0"/>
<stop offset="0.541667" stop-color="#1355A6"/>
<stop offset="0.838485" stop-color="#1355A6"/>
<stop offset="0.958333" stop-color="#1355A6" stop-opacity="0"/>
</linearGradient>
<clipPath id="clip0_0_1">
<rect width="225" height="120" fill="white" transform="translate(12 32.998)"/>
</clipPath>
<clipPath id="clip1_0_1">
<rect width="225" height="120" fill="white" transform="translate(545.387 119.998) rotate(180)"/>
</clipPath>
</defs>
</svg>
